<?xml version="1.0" encoding="UTF-8" standalone="no"?>
<!-- Created with Inkscape (http://www.inkscape.org/) -->

<svg
   width="210mm"
   height="297mm"
   viewBox="0 0 210 297"
   version="1.1"
   id="svg1"
   inkscape:version="1.3 (0e150ed6c4, 2023-07-21)"
   sodipodi:docname="firing-logger-logo.inkscape.svg"
   xmlns:inkscape="http://www.inkscape.org/namespaces/inkscape"
   xmlns:sodipodi="http://sodipodi.sourceforge.net/DTD/sodipodi-0.dtd"
   xmlns="http://www.w3.org/2000/svg"
   xmlns:svg="http://www.w3.org/2000/svg">
  <sodipodi:namedview
     id="namedview1"
     pagecolor="#ffffff"
     bordercolor="#000000"
     borderopacity="0.25"
     inkscape:showpageshadow="2"
     inkscape:pageopacity="0.0"
     inkscape:pagecheckerboard="0"
     inkscape:deskcolor="#d1d1d1"
     inkscape:document-units="mm"
     inkscape:zoom="22.627417"
     inkscape:cx="322.04294"
     inkscape:cy="304.12221"
     inkscape:window-width="3840"
     inkscape:window-height="2089"
     inkscape:window-x="-8"
     inkscape:window-y="-8"
     inkscape:window-maximized="1"
     inkscape:current-layer="layer2"
     showguides="true">
    <sodipodi:guide
       position="84.873373,219.34479"
       orientation="0.92619996,-0.37703267"
       id="guide5"
       inkscape:locked="false"
       inkscape:label=""
       inkscape:color="rgb(0,134,229)" />
    <sodipodi:guide
       position="84.57985,216.63075"
       orientation="0.92619996,-0.37703267"
       id="guide6"
       inkscape:label=""
       inkscape:locked="false"
       inkscape:color="rgb(0,134,229)" />
    <sodipodi:guide
       position="99.291097,217.22296"
       orientation="0.92619996,-0.37703267"
       id="guide10"
       inkscape:label=""
       inkscape:locked="false"
       inkscape:color="rgb(0,134,229)" />
    <sodipodi:guide
       position="82.836288,221.41495"
       orientation="0,-1"
       id="guide11"
       inkscape:locked="false" />
    <sodipodi:guide
       position="84.012443,216.34756"
       orientation="0,-1"
       id="guide12"
       inkscape:locked="false" />
    <sodipodi:guide
       position="84.537476,217.29634"
       orientation="0,-1"
       id="guide13"
       inkscape:locked="false" />
    <sodipodi:guide
       position="82.701962,215.02885"
       orientation="0,-1"
       id="guide14"
       inkscape:locked="false" />
    <sodipodi:guide
       position="68.755086,217.38793"
       orientation="0.92619996,-0.37703267"
       id="guide15"
       inkscape:label=""
       inkscape:locked="false"
       inkscape:color="rgb(0,134,229)" />
    <sodipodi:guide
       position="74.250816,219.32312"
       orientation="0.92619996,-0.37703267"
       id="guide16"
       inkscape:label=""
       inkscape:locked="false"
       inkscape:color="rgb(0,134,229)" />
    <sodipodi:guide
       position="72.578709,220.41058"
       orientation="0,-1"
       id="guide17"
       inkscape:locked="false" />
    <sodipodi:guide
       position="73.207935,219.44401"
       orientation="0,-1"
       id="guide18"
       inkscape:locked="false" />
    <sodipodi:guide
       position="73.383635,218.43735"
       orientation="0,-1"
       id="guide19"
       inkscape:locked="false" />
    <sodipodi:guide
       position="72.991927,218.37328"
       orientation="0.92619996,-0.37703267"
       id="guide20"
       inkscape:label=""
       inkscape:locked="false"
       inkscape:color="rgb(0,134,229)" />
    <sodipodi:guide
       position="72.742413,219.58037"
       orientation="0.92619996,-0.37703267"
       id="guide21"
       inkscape:label=""
       inkscape:locked="false"
       inkscape:color="rgb(0,134,229)" />
    <sodipodi:guide
       position="87.131633,220.87648"
       orientation="0.92619996,-0.37703267"
       id="guide22"
       inkscape:label=""
       inkscape:locked="false"
       inkscape:color="rgb(0,134,229)" />
    <sodipodi:guide
       position="88.115552,220.65841"
       orientation="0.92619996,-0.37703267"
       id="guide23"
       inkscape:label=""
       inkscape:locked="false"
       inkscape:color="rgb(0,134,229)" />
  </sodipodi:namedview>
  <defs
     id="defs1">
    <rect
       x="132.82853"
       y="274.55183"
       width="370.02234"
       height="157.1409"
       id="rect1" />
    <rect
       x="132.82853"
       y="274.55183"
       width="370.02234"
       height="157.1409"
       id="rect10" />
  </defs>
  <g
     inkscape:label="Layer 1"
     inkscape:groupmode="layer"
     id="layer1">
    <text
       xml:space="preserve"
       transform="scale(0.26458333)"
       id="text1"
       style="font-weight:bold;font-size:21.3333px;line-height:1.985;font-family:Arial;-inkscape-font-specification:'Arial Bold';text-align:center;white-space:pre;shape-inside:url(#rect1);display:none;fill:none;stroke:#66195c;stroke-width:1.30772;stroke-linecap:round;stroke-linejoin:round;stroke-miterlimit:10"
       sodipodi:insensitive="true"><tspan
         x="261.23577"
         y="301.60879"
         id="tspan3"><tspan
           style="font-weight:normal;font-family:'Harlow Solid Italic';-inkscape-font-specification:'Harlow Solid Italic, '"
           id="tspan2">Firing logger</tspan></tspan></text>
  </g>
  <g
     inkscape:groupmode="layer"
     id="layer3"
     inkscape:label="Firing">
    <path
       style="display:inline;fill:none;stroke:#1e6619;stroke-width:0.346001;stroke-linecap:round;stroke-linejoin:round;stroke-miterlimit:10;stroke-opacity:1"
       d="m 84.350679,78.477849 -0.223035,0.555261 c 0,0 -0.262059,0.645572 -0.343253,0.844899 0.175507,6.92e-4 0.23079,-0.0038 0.383086,0.0014 0.133815,0.0045 0.32976,0.06141 0.293968,0.288459 -0.03038,0.192705 -0.205089,0.309241 -0.398285,0.310576 -0.217262,0.0015 -0.322591,-0.0087 -0.517085,-0.0035 -0.245366,0.599906 -0.391382,0.930266 -0.770507,1.161421 -0.393199,0.239736 -0.946941,0.216159 -1.283659,-0.09497 -0.338934,-0.31317 -0.372505,-0.817218 -0.124632,-1.181138 0.371385,-0.545257 0.95323,-0.485896 1.726313,-0.48122 0.02561,-0.08089 0.03699,-0.07664 0.08179,-0.214285 -0.387518,0.238465 -0.743354,0.04397 -0.886014,-0.215459 -0.237025,-0.431032 -0.04689,-1.01602 0.286894,-1.386045 0.253838,-0.281399 0.530767,-0.413102 0.815589,-0.406836 0.1693,0.0037 0.364,0.03596 0.507063,0.221133 0.136014,-0.255738 0.47229,-0.290954 0.597746,-0.106494 0.105755,0.155495 0.02766,0.284039 -0.145979,0.70679 z"
       id="path7"
       inkscape:label="G main"
       sodipodi:nodetypes="cccssscsssccssscscc"
       inkscape:export-filename="firing-logger-logo.svg"
       inkscape:export-xdpi="96"
       inkscape:export-ydpi="96" />
    <path
       style="display:inline;fill:none;stroke:#1e6619;stroke-width:0.346001;stroke-linecap:round;stroke-linejoin:round;stroke-miterlimit:10;stroke-opacity:1"
       d="m 81.984736,80.580033 c 0.11956,-0.106851 0.328941,-0.109079 0.861944,-0.09928 -0.158315,0.365584 -0.327801,0.592895 -0.449222,0.655114 -0.196921,0.100909 -0.394896,0.05974 -0.481175,-0.06145 -0.08775,-0.123241 -0.11355,-0.331751 0.06845,-0.494406 z"
       id="path8"
       inkscape:label="G lower"
       sodipodi:nodetypes="scssss" />
    <path
       style="display:inline;fill:none;stroke:#1e6619;stroke-width:0.346001;stroke-linecap:round;stroke-linejoin:round;stroke-miterlimit:10;stroke-opacity:1"
       d="m 83.523397,78.799406 c -0.05964,0.172052 -0.09995,0.30515 -0.180681,0.349051 -0.117507,0.0639 -0.329467,0.07679 -0.415342,-0.023 -0.129763,-0.150785 -0.05222,-0.443261 0.0523,-0.612526 0.114569,-0.185539 0.390208,-0.455309 0.651889,-0.236785 0.123196,0.102878 -0.0356,0.33874 -0.108165,0.523259 z"
       id="path10"
       inkscape:label="G upper"
       sodipodi:nodetypes="cssssc" />
    <path
       style="display:inline;fill:none;stroke:#1e6619;stroke-width:0.346001;stroke-linecap:round;stroke-linejoin:round;stroke-miterlimit:10;stroke-opacity:1"
       d="m 79.637173,78.644623 c 0,0 0.161777,-0.442727 0.316299,-0.760515 0.12726,-0.26172 0.494664,-0.262186 0.625345,-0.0044 0.339925,-0.27821 0.810142,-0.309707 1.06283,0.0017 0.269763,0.332408 -0.09958,0.815077 -0.263751,1.319833 0.34302,-0.005 0.729072,-0.04999 0.676313,0.299824 -0.04288,0.284327 -0.344912,0.2972 -0.518101,0.29711 -0.179336,-9.2e-5 -0.4254,0.0216 -0.599893,-0.0076 -0.206919,-0.03458 -0.302722,-0.130688 -0.32019,-0.339747 -0.02203,-0.263661 0.486937,-1.027245 0.340334,-1.138013 -0.197714,-0.149386 -0.461036,-0.05446 -0.655581,0.412639 -0.08256,0.198223 -0.221179,0.532783 -0.300116,0.752293 -0.0801,0.222735 -0.289375,0.428673 -0.533291,0.35293 -0.198427,-0.06162 -0.206524,-0.257419 -0.166115,-0.375877 0.05451,-0.159779 0.335917,-0.810222 0.335917,-0.810222 z"
       id="path6"
       sodipodi:nodetypes="cscscssssssssscc"
       inkscape:label="N whole" />
    <ellipse
       style="fill:none;stroke:#1e6619;stroke-width:0.347021;stroke-linecap:round;stroke-linejoin:round;stroke-miterlimit:10;stroke-opacity:1"
       id="path3-9"
       ry="0.3751291"
       rx="0.37951401"
       cy="77.194389"
       cx="78.939316"
       inkscape:label="I (2) dot" />
    <path
       style="display:inline;fill:none;stroke:#1e6619;stroke-width:0.346001;stroke-linecap:round;stroke-linejoin:round;stroke-miterlimit:10;stroke-opacity:1"
       d="m 78.055701,78.718721 0.31279,-0.777589 c 0,0 0.168023,-0.33685 0.473568,-0.236784 0.370518,0.121344 0.09062,0.596345 0.09062,0.596345 l -0.368331,0.909134 c 0,0 0.281356,-0.0062 0.441412,0.0058 0.333765,0.0252 0.350245,0.602856 -0.283554,0.596346 -0.205604,-0.0021 -0.315751,-0.0091 -0.523264,-0.01462 -0.234292,-0.0063 -0.485313,-0.22108 -0.365409,-0.502801 0.09939,-0.233512 0.222168,-0.575873 0.222168,-0.575873 z"
       id="path4-7"
       sodipodi:nodetypes="ccsccsssscc"
       inkscape:label="I (2) main" />
    <path
       style="fill:none;stroke:#1e6619;stroke-width:0.346001;stroke-linecap:round;stroke-linejoin:round;stroke-miterlimit:10;stroke-opacity:1"
       d="m 75.700044,77.966781 c 0.06285,-0.151867 0.103202,-0.304602 0.18502,-0.453606 0.07796,-0.156404 0.213165,-0.207895 0.331104,-0.19292 0.209159,0.02656 0.187388,0.208062 0.257389,0.345992 0.03977,0.03858 0.298602,0.02838 0.465757,0.03179 0.198256,0.004 0.509208,-0.05043 0.654657,0.08214 0.128734,0.117332 0.12261,0.524797 -0.386711,0.518568 -0.172871,0.168048 -0.332079,0.314104 -0.41114,0.485788 -0.03251,0.07059 -0.141473,0.254537 0.03478,0.383084 0.06157,0.0449 0.336295,0.03224 0.486404,0.03624 0.105342,0.0028 0.366093,-0.0086 0.367886,0.249712 0.0016,0.2326 -0.209597,0.346552 -0.408124,0.347326 -0.263091,0.001 -0.698551,0.04592 -0.925704,-0.08682 -0.226143,-0.132147 -0.327543,-0.411351 -0.29447,-0.678172 0.03084,-0.248803 0.179952,-0.480634 0.417793,-0.738397 -0.06594,2.46e-4 -0.04064,-0.0079 -0.288668,0.0018 -0.03354,0.08626 -0.104733,0.306337 -0.189449,0.409732 -0.07928,0.09676 -0.176333,0.173819 -0.337436,0.109443 -0.262826,-0.105024 -0.183954,-0.325258 -0.107913,-0.49201 0.04555,-0.09988 0.10685,-0.258245 0.148828,-0.359673 z"
       id="path5"
       sodipodi:nodetypes="scscsscsssssssccssss"
       inkscape:label="R (1) whole" />
    <ellipse
       style="fill:none;stroke:#1e6619;stroke-width:0.347021;stroke-linecap:round;stroke-linejoin:round;stroke-miterlimit:10;stroke-opacity:1"
       id="path3"
       ry="0.3751291"
       rx="0.37951401"
       cy="77.195999"
       cx="75.101479"
       inkscape:label="I (1) dot" />
    <path
       style="fill:none;stroke:#1e6619;stroke-width:0.346001;stroke-linecap:round;stroke-linejoin:round;stroke-miterlimit:10;stroke-opacity:1"
       d="m 74.227428,78.714634 0.31279,-0.777589 c 0,0 0.168023,-0.33685 0.473568,-0.236784 0.370518,0.121344 0.09062,0.596345 0.09062,0.596345 l -0.368331,0.909134 c 0,0 0.281356,-0.0062 0.441412,0.0058 0.333765,0.0252 0.350245,0.602856 -0.283554,0.596346 -0.205604,-0.0021 -0.315751,-0.0091 -0.523264,-0.01462 -0.234292,-0.0063 -0.485313,-0.22108 -0.365409,-0.502801 0.09939,-0.233512 0.222168,-0.575873 0.222168,-0.575873 z"
       id="path4"
       sodipodi:nodetypes="ccsccsssscc"
       inkscape:label="I (1) main" />
    <path
       style="fill:none;stroke:#1e6619;stroke-width:0.346001;stroke-linecap:round;stroke-linejoin:round;stroke-miterlimit:10;stroke-opacity:1"
       d="m 71.845821,79.153098 c 0,0 -0.351535,0.934344 -0.482779,1.152363 -0.239261,0.397454 -0.791824,0.9262 -1.341486,0.607321 -0.698554,-0.405256 -0.180071,-1.538351 0.218407,-1.911038 0.485392,-0.453976 1.124365,-0.673319 1.922072,-0.612295 -0.07455,0.192278 -0.316214,0.763649 -0.316214,0.763649 z"
       id="path2"
       sodipodi:nodetypes="cssscc"
       inkscape:label="F lower" />
    <path
       style="display:inline;fill:none;stroke:#1e6619;stroke-width:0.346001;stroke-linecap:round;stroke-linejoin:round;stroke-miterlimit:10;stroke-opacity:1"
       d="m 74.473508,76.428362 -0.765856,-0.0076 c 0,0 -0.34798,0.847521 -0.534929,1.313895 0.321758,-8.97e-4 0.473176,-0.03408 0.60185,0.05105 0.26192,0.173297 0.05323,0.62356 -0.235073,0.603857 0,0 -0.452664,0.0017 -0.63248,0.0025 -0.196551,0.415918 -0.772728,1.981066 -1.060576,2.477008 -0.940212,1.619917 -2.731397,0.821018 -2.892185,-0.206061 -0.219626,-1.402931 0.892313,-3.133306 3.486655,-2.932284 0.204924,-0.537705 0.664677,-1.684715 0.664677,-1.684715 0,0 0.07214,-0.283113 0.409543,-0.283237 l 12.34731,-0.0046 c 0.175767,-6.5e-5 0.288282,0.132759 0.266364,0.316061 -0.01911,0.159823 -0.176787,0.333816 -0.364424,0.338482 -0.182988,0.0046 -11.290876,0.01569 -11.290876,0.01569 z"
       id="path1"
       sodipodi:nodetypes="cccsccssccsssscc"
       inkscape:label="F main" />
  </g>
  <g
     inkscape:groupmode="layer"
     id="layer2"
     inkscape:label="Logger">
    <path
       style="display:inline;fill:none;stroke:#1e6619;stroke-width:0.346001;stroke-linecap:round;stroke-linejoin:round;stroke-miterlimit:10;stroke-opacity:1"
       d="m 97.220341,77.968267 c 0.06285,-0.151867 0.103202,-0.304602 0.18502,-0.453606 0.07796,-0.156404 0.213165,-0.207895 0.331104,-0.19292 0.209159,0.02656 0.187388,0.208062 0.257389,0.345992 0.03977,0.03858 0.298602,0.02838 0.465757,0.03179 0.198256,0.004 0.509208,-0.05043 0.654657,0.08214 0.128734,0.117332 0.12261,0.524797 -0.386711,0.518568 -0.172871,0.168048 -0.332079,0.314104 -0.41114,0.485788 -0.03251,0.07059 -0.141473,0.254537 0.03478,0.383084 0.06157,0.0449 0.336295,0.03224 0.486404,0.03624 0.105342,0.0028 0.366093,-0.0086 0.367886,0.249712 0.0016,0.2326 -0.209597,0.346552 -0.408124,0.347326 -0.263091,0.001 -0.698551,0.04592 -0.925704,-0.08682 -0.226143,-0.132147 -0.327543,-0.411351 -0.29447,-0.678172 0.03084,-0.248803 0.179952,-0.480634 0.417793,-0.738397 -0.06594,2.46e-4 -0.04064,-0.0079 -0.288668,0.0018 -0.03354,0.08626 -0.104733,0.306337 -0.189449,0.409732 -0.07928,0.09676 -0.176333,0.173819 -0.337436,0.109443 -0.262826,-0.105024 -0.183954,-0.325258 -0.107913,-0.49201 0.04555,-0.09988 0.10685,-0.258245 0.148828,-0.359673 z"
       id="path5-2"
       sodipodi:nodetypes="scscsscsssssssccssss"
       inkscape:label="R (2) whole" />
    <path
       style="display:inline;fill:none;stroke:#1e6619;stroke-width:0.346001;stroke-linecap:round;stroke-linejoin:round;stroke-miterlimit:10;stroke-opacity:1"
       d="m 86.646735,77.784179 c 0,0 0.532648,-1.327687 0.744746,-1.821145 0.05987,-0.139288 0.294143,-0.271812 0.490251,-0.167941 0.180861,0.09579 0.149794,0.295175 0.09158,0.437457 -0.374892,0.9163 -1.242553,3.099161 -1.479074,3.635244 0.239066,0.0078 1.886243,-0.0083 2.002774,0.03528 0.181262,0.06778 0.175834,0.299676 0.07538,0.419387 -0.134663,0.160485 -0.336496,0.153909 -0.479599,0.154665 -0.17023,8.98e-4 -1.055889,0.0037 -1.674444,5.35e-4 -0.274801,-0.0014 -0.480721,-0.02164 -0.578526,-0.108284 -0.09481,-0.084 -0.133223,-0.244153 -0.08001,-0.392192 0.171096,-0.475945 0.88691,-2.193008 0.88691,-2.193008 z"
       id="path9"
       inkscape:label="L whole"
       sodipodi:nodetypes="cssscsssssscc" />
    <path
       style="display:inline;fill:none;stroke:#1e6619;stroke-width:0.346001;stroke-linecap:round;stroke-linejoin:round;stroke-miterlimit:10;stroke-opacity:1"
       d="m 91.248258,80.476311 c -0.278439,0.742533 -0.496847,0.970093 -0.738467,1.145918 -0.146463,0.10658 -0.473299,0.192554 -0.711623,0.171595 -0.191287,-0.01682 -0.39471,-0.08117 -0.598908,-0.252096 -0.353856,-0.296205 -0.372505,-0.817218 -0.124632,-1.181138 0.371385,-0.545257 0.95323,-0.485896 1.726313,-0.48122 0.02561,-0.08089 0.03699,-0.07664 0.08179,-0.214285 -0.387518,0.238465 -0.743354,0.04397 -0.886014,-0.215459 -0.237025,-0.431032 -0.04689,-1.01602 0.286894,-1.386045 0.253838,-0.281399 0.530767,-0.413102 0.815589,-0.406836 0.1693,0.0037 0.364,0.03596 0.507063,0.221133 0.08896,-0.173512 0.247559,-0.223366 0.368008,-0.224048 0.167923,-9.5e-4 0.257079,0.110755 0.274395,0.218248 0.02093,0.129966 -0.06528,0.310751 -0.190636,0.606096 v 8e-6 l -0.223035,0.555261 c 0,0 -0.262059,0.645572 -0.343253,0.844899 0.09932,3.92e-4 0.233815,-0.0032 0.355717,-7.92e-4 0.249774,0.005 0.494698,-0.0143 1.411442,0.0026 0.02561,-0.08089 0.03699,-0.07664 0.08179,-0.214285 -0.387518,0.238465 -0.743354,0.04397 -0.886014,-0.215459 -0.237025,-0.431032 -0.04689,-1.01602 0.286894,-1.386045 0.253838,-0.281399 0.530767,-0.413102 0.815589,-0.406836 0.1693,0.0037 0.364,0.03596 0.507063,0.221133 0.08896,-0.173512 0.247559,-0.223366 0.368008,-0.224048 0.167923,-9.5e-4 0.257079,0.110755 0.274395,0.218248 0.02093,0.129966 -0.06528,0.310751 -0.190636,0.606096 v 8e-6 l -0.223035,0.555261 c 0,0 -0.262059,0.645572 -0.343253,0.844899 0.175507,6.92e-4 4.538537,0.0045 4.690833,0.0097 0.133815,0.0045 0.32976,0.06141 0.293968,0.288459 -0.03038,0.192705 -0.205089,0.309241 -0.398285,0.310576 -0.217262,0.0015 -4.630338,-0.01697 -4.824832,-0.01177 -0.245366,0.599906 -0.391382,0.930266 -0.770507,1.161421 -0.393199,0.239736 -0.943037,0.21188 -1.283659,-0.09497 -0.322398,-0.290432 -0.374572,-0.701463 -0.140907,-1.063976 -0.148788,-0.0033 -0.06837,-0.0084 -0.262855,-0.0032"
       id="path7-1"
       inkscape:label="G (1) main"
       sodipodi:nodetypes="cssssccssscssccccsccssscssccccssscsscc" />
    <path
       style="display:inline;fill:none;stroke:#1e6619;stroke-width:0.346001;stroke-linecap:round;stroke-linejoin:round;stroke-miterlimit:10;stroke-opacity:1"
       d="m 89.692119,80.580364 c 0.11956,-0.106851 0.328941,-0.109079 0.861944,-0.09928 -0.158315,0.365584 -0.327801,0.592895 -0.449222,0.655114 -0.196921,0.100909 -0.394896,0.05974 -0.481175,-0.06145 -0.08775,-0.123241 -0.11355,-0.331751 0.06845,-0.494406 z"
       id="path8-0"
       inkscape:label="G (1) lower"
       sodipodi:nodetypes="scssss" />
    <path
       style="display:inline;fill:none;stroke:#1e6619;stroke-width:0.346001;stroke-linecap:round;stroke-linejoin:round;stroke-miterlimit:10;stroke-opacity:1"
       d="m 91.23078,78.799737 c -0.05964,0.172052 -0.09995,0.30515 -0.180681,0.349051 -0.117507,0.0639 -0.329467,0.07679 -0.415342,-0.023 -0.129763,-0.150785 -0.05222,-0.443261 0.0523,-0.612526 0.114569,-0.185539 0.390208,-0.455309 0.651889,-0.236785 0.123196,0.102878 -0.0356,0.33874 -0.108165,0.523259 z"
       id="path10-4"
       inkscape:label="G (1) upper"
       sodipodi:nodetypes="cssssc" />
    <path
       style="display:inline;fill:none;stroke:#1e6619;stroke-width:0.346001;stroke-linecap:round;stroke-linejoin:round;stroke-miterlimit:10;stroke-opacity:1"
       d="m 92.150047,80.581116 c 0.11956,-0.106851 0.328941,-0.109079 0.861944,-0.09928 -0.158315,0.365584 -0.327801,0.592895 -0.449222,0.655114 -0.196921,0.100909 -0.394896,0.05974 -0.481175,-0.06145 -0.08775,-0.123241 -0.11355,-0.331751 0.06845,-0.494406 z"
       id="path8-0-7"
       inkscape:label="G (2) lower"
       sodipodi:nodetypes="scssss" />
    <path
       style="display:inline;fill:none;stroke:#1e6619;stroke-width:0.346001;stroke-linecap:round;stroke-linejoin:round;stroke-miterlimit:10;stroke-opacity:1"
       d="m 93.688708,78.800489 c -0.05964,0.172052 -0.09995,0.30515 -0.180681,0.349051 -0.117507,0.0639 -0.329467,0.07679 -0.415342,-0.023 -0.129763,-0.150785 -0.05222,-0.443261 0.0523,-0.612526 0.114569,-0.185539 0.390208,-0.455309 0.651889,-0.236785 0.123196,0.102878 -0.0356,0.33874 -0.108165,0.523259 z"
       id="path10-4-2"
       inkscape:label="G (2) upper"
       sodipodi:nodetypes="cssssc" />
    <path
       style="fill:none;stroke:#1e6619;stroke-width:0.346001;stroke-linecap:round;stroke-linejoin:round;stroke-miterlimit:10;stroke-opacity:0.995025"
       d="m 88.217871,78.728009 c 0.06225,-0.178405 0.155882,-0.361727 0.328661,-0.438216 0.166705,-0.0738 0.356288,-0.07279 0.460955,0.07648 0.08794,0.125413 0.06909,0.354526 0.0021,0.498163 -0.07786,0.166806 -0.150275,0.286106 -0.314192,0.32246 -0.153447,0.03403 -0.329263,0.03595 -0.429947,-0.08475 -0.08041,-0.09639 -0.08888,-0.255619 -0.04753,-0.374134 z"
       id="path23"
       sodipodi:nodetypes="ssssssss"
       inkscape:label="O inner" />
    <path
       style="fill:none;stroke:#1e6619;stroke-width:0.346001;stroke-linecap:round;stroke-linejoin:round;stroke-miterlimit:10;stroke-opacity:1"
       d="m 88.387369,79.80288 c -0.262427,-9.73e-4 -0.486885,-0.04711 -0.680063,-0.293523 -0.187457,-0.239115 -0.21031,-0.599879 -0.130224,-0.892969 0.101205,-0.370378 0.38059,-0.702073 0.729671,-0.861962 0.290155,-0.132899 0.679851,-0.141441 0.954982,0.0083 0.293907,0.159925 0.481031,0.511055 0.460953,0.793752 -0.02016,0.2839 -0.0937,0.538329 -0.241846,0.781346 -0.111413,0.182758 -0.278951,0.316905 -0.477491,0.396876 -0.176692,0.07117 -0.429565,0.06891 -0.615982,0.06821 z"
       id="path24"
       sodipodi:nodetypes="sssssssss"
       inkscape:label="O main" />
    <path
       style="fill:none;stroke:#1e6619;stroke-width:0.346001;stroke-linecap:round;stroke-linejoin:round;stroke-miterlimit:10;stroke-opacity:1"
       d="m 96.023078,79.80288 c -0.137678,-0.0081 -0.326164,0.01106 -0.47749,-0.0021 -0.234742,-0.02036 -0.508579,-0.126384 -0.629419,-0.328662 -0.142522,-0.238573 -0.160954,-0.541863 -0.09198,-0.837159 0.06815,-0.291799 0.228544,-0.54985 0.465088,-0.733804 0.248836,-0.193514 0.544108,-0.266808 0.848527,-0.240813 0.244417,0.02087 0.527593,0.170247 0.620117,0.427881 0.06523,0.181647 0.06052,0.392754 -0.02067,0.553971 -0.100357,0.199261 -0.317025,0.323306 -0.543637,0.346232 -0.250393,0.02533 -0.536819,-3.5e-5 -0.749308,0.0072 0.0172,0.196144 0.225407,0.206547 0.342098,0.204639 0.258677,-0.0042 0.488831,-0.003 0.740007,0.0021 0.164457,0.0033 0.423503,-0.0013 0.39274,0.289387 -0.01847,0.174465 -0.174571,0.299005 -0.403075,0.302824 -0.180976,0.003 -0.37132,0.0154 -0.492998,0.0083 z"
       id="path25"
       sodipodi:nodetypes="ssssssssscsssss"
       inkscape:label="E main" />
    <path
       style="fill:none;stroke:#1e6619;stroke-width:0.346001;stroke-linecap:round;stroke-linejoin:round;stroke-miterlimit:10;stroke-opacity:1"
       d="m 95.733689,78.493399 c -0.10395,-9.41e-4 -0.05965,-7.74e-4 -0.156062,-4e-6 0.05438,-0.106109 0.137489,-0.224211 0.283187,-0.260449 0.140989,-0.03507 0.294701,-0.02469 0.309026,0.119885 0.01708,0.172412 -0.350552,0.141342 -0.436151,0.140568 z"
       id="path26"
       sodipodi:nodetypes="scsss"
       inkscape:label="E upper" />
  </g>
</svg>
